<svg version="1.0" xmlns="http://www.w3.org/2000/svg" viewBox="0 0 190 157"><switch><g><path fill="#242424" d="M0 0h190v157H0z"/><g opacity=".5"><path fill="#F7F7F9" d="M190.01 147.22c-8.74 2.33-17.7 3.85-26.71 4.49-3.74.26-8.02.41-11.46-1.33-2.84-1.43-5.27-4.87-4.23-7.94.71-2.07 2.78-3.6 4.97-5.21 2.7-2 5.78-4.26 6.57-8.05.82-3.98-1.43-8.35-5.5-10.64-3.47-1.95-7.49-2.21-10.91-2.18-1.68.01-3.37.07-5 .14-2.98.11-5.8.23-8.63.02-4.94-.37-8.84-1.73-11.61-4.05-3.14-2.64-4.62-6.79-3.6-10.09l-3.99-1.24c-1.53 4.94.45 10.77 4.91 14.53 3.45 2.9 8.15 4.59 13.98 5.02 3.06.23 6.13.11 9.09-.01 1.6-.07 3.25-.13 4.86-.14 2.89-.02 6.22.17 8.84 1.65 2.05 1.16 3.96 3.7 3.46 6.14-.47 2.22-2.55 3.76-4.96 5.54-2.49 1.84-5.32 3.92-6.45 7.23-1.79 5.26 1.8 10.75 6.3 13.01 3.04 1.54 6.36 1.93 9.54 1.93 1.4 0 2.78-.08 4.1-.16 8.91-.63 17.77-2.1 26.42-4.34v-4.32z"/><path fill="#D9DBE4" d="M112.27 84.02c-1.15.28-2.35.62-3.58 1.02l-4.4-10.11c-.95-2.25 2.46-3.68 3.4-1.43l4.58 10.52zm-17.23 7.71L90.3 80.81c-.39-.94.04-2.02.98-2.41h.01c.94-.39 2.02.05 2.41.99l4.49 10.33c-1.14.65-2.19 1.33-3.15 2.01z"/><path fill="#92929E" d="M95.1 87.47l.01-.01c.54-.34 1.07-.67 1.65-1l-.21-.48-.23-.56c-.03.03-.31.17-.79.44-.54.32-1.37.8-2.38 1.48l-.01.01.24.56c-.01.01-.01.02-.01.02l.24.55.01-.01c.47-.34.97-.67 1.48-1zm15.66-6.86l-.23-.57c-1.4.27-2.9.72-3.61.92l.25.6.1.22.01-.01c.24-.08.48-.15.73-.21-.01-.01-.01-.01.01-.01.96-.32 1.9-.56 2.82-.78l-.08-.16z"/><path fill="#00CB5C" d="M115.43 108.09l.17-.13c3.1-2.33 5.16-6.17 4.81-11.04-.02-.14-.02-.29-.03-.44-.02-.29-.07-.61-.12-.93l.01-.01c1.3-1.1 3.11-2.86 4.1-4.65.34-.61.57-1.21.68-1.79.08-.54.04-1.05-.16-1.54-.02-.07-.05-.19-.11-.33l-.01-.01c-.23-.67-.78-2.06-1.33-3.3-.37-.84-.75-1.62-1.01-2.07-.13-.23-.26-.38-.33-.41-.25-.26-.54-.48-.87-.67-.21-.12-.45-.23-.69-.33-.13-.05-.25-.09-.38-.14-1.98-.66-4.76-.54-7.63-.04-.61.1-1.19.22-1.75.35l-.01.01c-.88.19-1.74.4-2.6.64l-.01.01c-.33.1-.66.2-.98.29l-.01.01c-2.1.62-4.01 1.33-5.43 1.92a53.17 53.17 0 00-3.58 1.67c-.2.1-.41.21-.6.29-.33.18-.68.36-.99.54l-.01.01c-.35.19-.67.37-1 .56-.08.05-.17.1-.25.16-.68.39-1.33.79-1.92 1.19-.01.01-.01.02-.01.02-1.11.73-2.09 1.45-2.89 2.13-.57.47-1.06.92-1.47 1.35-.29.28-.54.54-.77.81-.44.48-.79.94-1.05 1.34-.08.13-.16.26-.24.38l-.02.02c-.07.12-.13.23-.18.32-.21.35-.35.64-.43.86-.03.07-.05.13-.07.19-.05.16-.07.24-.09.25l.02.04c-.03.14-.07.26-.08.37-.02.07-.02.12-.05.17l.01.01c-.01.06-.01.11 0 .17-.04.61.12 1.13.45 1.9.15.38.33.79.57 1.32.04.13.11.27.17.41 0 0 .02.05.07.12l.04.08c.38.64 1.57 2.76 1.58 2.79.18.33.44.61.78.86.85.61 2.18.94 3.81 1.05.05.01.11 0 .16.01.16.01.32.01.48.02.35.01.73 0 1.1-.01.01-.01.03 0 .04-.01.07-.02.13-.01.18-.01.03 0 .05.01.06 0 .27-.01.54-.04.82-.06l.69-.06c.01-.01.04-.01.05-.01.13.18.26.35.39.51.14.21.3.41.48.61.25.29.51.57.76.82.2.2.41.4.62.58.08.1.19.19.29.27.44.37.92.71 1.4 1 .38.26.76.49 1.17.69.02.01.04.01.05.02.14.08.27.14.42.2.56.26 1.15.47 1.73.61.02.01.02.01.04.01.26.08.52.15.78.19.19.05.39.09.56.1 1.02.17 2.07.2 3.08.11.06 0 .13.01.17-.02.08 0 .16-.01.24-.01.01-.01.01-.01.02-.01l.01.01.01-.01c.33-.04.65-.07.97-.14.07-.02.13-.02.2-.04.15-.04.32-.07.47-.1.02.01.04-.01.07-.02 0 0 .01-.01.02-.01.66-.17 1.31-.39 1.93-.67l.01-.01c.86-.33 1.66-.79 2.42-1.34z"/><path fill="#03A84E" d="M95.32 101.29c10.89-12.78 23.56-9.92 23.63-9.94 1.36 2.65 1.74 5.61 1.29 8.66-2.81 14.04-20.83 13.54-24.92 1.28zm29.07-10.39c-.74-6.89-9.15-3.95-11.56-3.67-2.81.33-4.3-.79-4.94-2.41-.51-1.28-.25-2.81.28-3.58 3.68-1.03 11.28-2.55 13.94.22 1.02.98 2.81 5.71 2.91 6.08.29.97.04 2.16-.63 3.36z"/><path fill="#008D40" d="M113.06 109.47c-6.56-.65-9.54-4.8-10.89-8.33a5.965 5.965 0 012.94-7.53c5.84-2.87 9.87-2.5 12.37-2.47-7.88-2.3-17.44 3.8-17.49 3.83-2.9-2.32.54-4.19.54-4.19l-.01-.01c-.73-1-2.21-3.62-2.38-5.63-10.94 5.4-11.95 10.38-12.01 10.44l.01.03c-.49 1.83.45 2.43 2.36 7.43h.01c1.06 2.33 6.19 2.16 8.73 1.95 3.63 5 10.17 7.05 15.8 4.49.02-.01.02 0 .02-.01z"/></g><g opacity=".5"><path fill="#D9DBE4" d="M5.69 51.85c-2.07-3.41-4.06-6.75-5.7-10.11v8.71c.7 1.2 1.41 2.4 2.12 3.58 4.76 7.87 9.25 15.29 9.56 23.7.32 8.56-4.29 17.15-11.67 22.21v4.91c9.89-5.55 16.25-16.43 15.85-27.29-.34-9.49-5.33-17.74-10.16-25.71zm67.75-29.13c-7.74 2.45-16.62.97-23.15-3.86-2.51-1.85-4.66-4.13-6.94-6.55-2.54-2.68-5.16-5.46-8.35-7.63C26.77-.94 15.33-1.56 6.53 3.13 4.11 4.43 1.91 6.13 0 8.1v6.66c2.13-3.31 5.05-6.1 8.51-7.95 7.46-3.98 17.16-3.45 24.14 1.32 2.81 1.92 5.17 4.41 7.67 7.05 2.3 2.44 4.69 4.96 7.5 7.04 7.59 5.61 17.89 7.33 26.89 4.49l-1.27-3.99z"/><path fill="#00CB5C" d="M89.55 43.25c-1.45 2.34-3.04 3.65-4.55 3.5v.01c-.08-.01-6.2-.88-5.82-.83-1.98-.28-3.39-3.05-4.04-7.21-1.91-12.67 3.76-32.02 9.53-31.2 0 0 4.13.41 5.61.8v.01c7.2 1.04 4.9 26.82-.73 34.92z"/><path fill="#03A84E" d="M75.2 38.72c-9.36-.61-15.11-10.27-11.48-18.13 2.6-5.66 9.13-8.59 15.1-7.26-3.08 6.58-4.81 17.5-3.62 25.39z"/><path fill="#03A84E" d="M94.16 14.17l-.11.09S91.72.69 83.93 15.49c-2.36 5.35-7.94 6.87-6.95 3.08h-.08c-.57.47-3.5 7.26-13.18 2.03 2.6-5.66 9.13-8.59 15.1-7.26 1.79-3.82 3.91-6.09 5.88-5.81 0 0 4.11.41 5.59.8v.01c.04.01.07 0 .1.01 1.74.24 3.05 2.43 3.77 5.82z"/><path fill="#545454" d="M87.86 22.49c-1.43-.2-.7-5.26.72-5.06 1.42.2.7 5.26-.72 5.06zm-.71 12.66c-.48 3.34-2.64 3.08-2.16-.31.48-3.34 2.64-3.08 2.16.31z"/><path fill="#008D40" d="M94.71 18.28c-.42 7.21-1.65 15.89-5.08 22.29-8.05 14.7-10.76-8.77-5.55-23.63-2.3 4.72-3.48 10.01-3.86 15.25-1.32 1.06-3.94 1.22-5.1-.48-7.35 3.63-12.69-3.48-12.38-7.83l-.01.1c-1.07 7.54 4.97 14.24 12.47 14.73.64 4.16 2.05 6.93 4.02 7.21 0 0 2.81.41 4.94.71 5.2 1.76 11.73-12.22 10.55-28.35z"/></g></g></switch></svg>